<?xml version="1.0" standalone="no"?>
<!DOCTYPE svg PUBLIC "-//W3C//DTD SVG 20010904//EN"
 "http://www.w3.org/TR/2001/REC-SVG-20010904/DTD/svg10.dtd">
<svg version="1.0" xmlns="http://www.w3.org/2000/svg"
 width="57.000000pt" height="69.000000pt" viewBox="0 0 57.000000 69.000000"
 preserveAspectRatio="xMidYMid meet">

<g transform="translate(0.000000,69.000000) scale(0.100000,-0.100000)"
fill="#000000" stroke="none">
<path d="M70 550 l0 -40 185 0 c158 0 185 -2 185 -15 0 -13 -27 -15 -185 -15
l-185 0 0 -205 0 -205 95 0 95 0 0 110 0 110 75 0 75 0 0 40 0 40 -115 0 -115
0 0 -110 c0 -91 -3 -110 -15 -110 -13 0 -15 21 -15 125 l0 125 185 0 185 0 0
95 0 95 -225 0 -225 0 0 -40z"/>
</g>
</svg>
